<?xml version="1.0" ?><svg id="Layer_1" style="enable-background:new 0 0 62 62;" version="1.1" viewBox="0 0 62 62" xml:space="preserve" xmlns="http://www.w3.org/2000/svg" xmlns:xlink="http://www.w3.org/1999/xlink"><style type="text/css">
	.st0{fill:#5FD2FF;}
	.st1{fill:#FFFFFF;}
	.st2{fill:#0082ED;}
	.st3{fill:#2BA8FC;}
	.st4{fill:#CECECE;}
	.st5{fill:#F92B75;}
	.st6{fill:#3BB0FF;}
	.st7{fill:#CE004F;}
	.st8{fill:none;stroke:#ED0C68;stroke-width:5;stroke-linecap:round;stroke-linejoin:round;stroke-miterlimit:10;}
	.st9{fill:#ED0C68;}
	.st10{fill:#78DED4;}
	.st11{fill:#1E5363;}
	.st12{fill:#54C8E8;}
	.st13{fill:#F4F4F4;}
	.st14{fill:#0C82EB;}
	.st15{fill:#00B2E3;}
	.st16{fill:#68A2B9;}
	.st17{fill:#A2C5D3;}
	.st18{fill:#76777A;}
	.st19{fill:#A7A8A9;}
	.st20{fill:#D6D6D6;}
	.st21{fill:none;stroke:#F92B75;stroke-width:5;stroke-linecap:round;stroke-linejoin:round;stroke-miterlimit:10;}
	.st22{fill:#FD4A5C;}
	.st23{fill:#FF8E9F;}
	.st24{fill:none;stroke:#F458A3;stroke-width:5;stroke-linecap:round;stroke-linejoin:round;stroke-miterlimit:10;}
	.st25{fill:#FFB259;}
	.st26{fill:#F32735;}
	.st27{fill:#FF9E18;}
	.st28{fill:#FFC27A;}
	.st29{fill:#FFC56D;}
	.st30{fill:none;stroke:#FD4A5C;stroke-width:5;stroke-linecap:round;stroke-linejoin:round;stroke-miterlimit:10;}
	.st31{fill:#0069A7;}
	.st32{fill:#D8D8D8;}
	.st33{fill:#8CB7C9;}
	.st34{fill:#65BAAF;}
	.st35{fill:#00AF9A;}
	.st36{fill:#00C4B3;}
	.st37{fill:#19D3C5;}
	.st38{fill:none;stroke:#54C8E8;stroke-width:5;stroke-linecap:round;stroke-linejoin:round;stroke-miterlimit:10;}
	.st39{fill:#8331A7;}
	.st40{fill:#009383;}
	.st41{fill:#98989A;}
	.st42{fill:#636569;}
	.st43{fill:#898A8D;}
	.st44{fill:#FFB548;}
	.st45{fill:none;stroke:#FFB548;stroke-width:5;stroke-linecap:round;stroke-linejoin:round;stroke-miterlimit:10;}
	.st46{fill:#ED40A9;}
	.st47{fill:#CB007B;}
	.st48{fill:#E50695;}
	.st49{fill:#D7282F;}
	.st50{fill:#E5E5E5;}
	.st51{fill:#FFA4B4;}
	.st52{fill:#F6A7D7;}
	.st53{fill:#F478C4;}
	.st54{fill:#E0C7E6;}
	.st55{fill:#B980D0;}
	.st56{fill:#D9B7E2;}
	.st57{fill:#BADF93;}
	.st58{fill:#4C9C2E;}
	.st59{fill:#3DAE2B;}
	.st60{fill:#AADA91;}
	.st61{fill:#6ABF4B;}
	.st62{fill:#EFB8A9;}
	.st63{fill:#FECB8B;}
	.st64{fill:#BDE8EF;}
	.st65{fill:#CCA1DD;}
	.st66{fill:#B2B2B2;}
	.st67{fill:none;stroke:#FF8300;stroke-width:5;stroke-linecap:round;stroke-linejoin:round;stroke-miterlimit:10;}
	.st68{fill:none;stroke:#FF9E18;stroke-width:5;stroke-linecap:round;stroke-linejoin:round;stroke-miterlimit:10;}
	.st69{fill:#96DAEA;}
	.st70{fill:#FF8300;}
	.st71{fill:none;stroke:#6ABF4B;stroke-width:5;stroke-linecap:round;stroke-linejoin:round;stroke-miterlimit:10;}
	.st72{fill:none;}
	.st73{fill:#444444;}
	.st74{fill:#FDCF85;}
</style><g><path class="st49" d="M54.78,24.13c-0.43,0-0.86-0.11-1.26-0.34L20.54,4.75c-1.21-0.7-1.62-2.24-0.92-3.45   c0.7-1.21,2.24-1.62,3.45-0.92l32.97,19.04c1.21,0.7,1.62,2.24,0.92,3.45C56.5,23.68,55.65,24.13,54.78,24.13z"/><path class="st22" d="M51.52,59.43H10.48c-4.39,0-7.96-3.56-7.96-7.96V28.89c0-4.39,3.56-7.96,7.96-7.96h41.04   c4.39,0,7.96,3.56,7.96,7.96v22.59C59.48,55.87,55.91,59.43,51.52,59.43z"/><g><circle class="st13" cx="16.87" cy="40.19" r="4.04"/><circle class="st13" cx="31" cy="40.19" r="4.04"/><circle class="st13" cx="45.13" cy="40.19" r="4.04"/></g><path class="st26" d="M51.52,61.96H10.48C4.7,61.96,0,57.26,0,51.48V28.89c0-5.78,4.7-10.48,10.48-10.48h41.04   c5.78,0,10.48,4.7,10.48,10.48v22.59C62,57.26,57.3,61.96,51.52,61.96z M10.48,23.46c-3,0-5.43,2.44-5.43,5.43v22.59   c0,3,2.44,5.43,5.43,5.43h41.04c2.99,0,5.43-2.44,5.43-5.43V28.89c0-3-2.44-5.43-5.43-5.43H10.48z"/><path class="st44" d="M2.52,42.71C1.13,42.71,0,41.58,0,40.19V28.89c0-5.78,4.7-10.48,10.48-10.48H31c1.39,0,2.52,1.13,2.52,2.52   c0,1.39-1.13,2.52-2.52,2.52H10.48c-3,0-5.43,2.44-5.43,5.43v11.29C5.05,41.58,3.92,42.71,2.52,42.71z"/></g></svg>